<svg width="14" height="15" viewBox="0 0 14 15" fill="none" xmlns="http://www.w3.org/2000/svg">
<path d="M7 13.6956C10.4217 13.6956 13.1956 10.9217 13.1956 7.5C13.1956 4.07825 10.4217 1.30438 7 1.30438C3.57825 1.30438 0.804382 4.07825 0.804382 7.5C0.804382 10.9217 3.57825 13.6956 7 13.6956Z" fill="#FFD482" stroke="#F66F4D" stroke-width="1.5" stroke-linecap="round" stroke-linejoin="round"/>
<path d="M2.94897 9.88293C3.39137 9.88293 3.81564 9.70719 4.12846 9.39437C4.44128 9.08155 4.61702 8.65727 4.61702 8.21488V6.78512C4.61702 6.34272 4.79277 5.91845 5.10559 5.60563C5.41841 5.29281 5.84268 5.11707 6.28508 5.11707C6.72747 5.11707 7.15174 4.94133 7.46457 4.62851C7.77739 4.31569 7.95313 3.89141 7.95313 3.44902V1.37724C7.64244 1.32927 7.32412 1.30438 7 1.30438C3.57825 1.30438 0.804382 4.07825 0.804382 7.5C0.804382 8.34441 0.973311 9.14937 1.27922 9.88293H2.94897Z" fill="#FAF8ED" stroke="#F66F4D" stroke-width="1.5" stroke-linecap="round" stroke-linejoin="round"/>
<path d="M13.1949 7.40439C12.7178 7.15697 12.1888 7.0264 11.6514 7.02344H9.62111C9.17872 7.02344 8.75444 7.19918 8.44162 7.512C8.1288 7.82482 7.95306 8.24909 7.95306 8.69149C7.95306 9.13388 8.1288 9.55816 8.44162 9.87098C8.75444 10.1838 9.17872 10.3595 9.62111 10.3595C9.93711 10.3595 10.2402 10.4851 10.4636 10.7085C10.6871 10.932 10.8126 11.235 10.8126 11.551V12.3803H10.8174C12.2562 11.2532 13.1841 9.50361 13.1955 7.53687V7.46317C13.1954 7.44356 13.1952 7.42396 13.1949 7.40439Z" fill="#FAF8ED" stroke="#F66F4D" stroke-width="1.5" stroke-linecap="round" stroke-linejoin="round"/>
</svg>
